<svg width="238" height="233" viewBox="0 0 238 233" fill="none" xmlns="http://www.w3.org/2000/svg">
<path d="M0 116.476C0 20.5658 20.9331 0 118.556 0C216.179 0 237.161 20.5658 237.161 116.476C237.161 212.386 216.228 233 118.556 233C20.8845 233 0 212.434 0 116.476Z" fill="#FEFEFE"/>
<path d="M113.214 82.5019C113.33 84.7993 112.743 87.0782 111.527 89.0442C110.312 91.0102 108.524 92.573 106.395 93.5305C104.267 94.488 101.894 94.7962 99.5853 94.4155C97.2763 94.0347 95.1366 92.9823 93.4427 91.3944C91.7487 89.8064 90.5785 87.7559 90.083 85.5077C89.5876 83.2596 89.7898 80.9171 90.6636 78.783C91.5373 76.649 93.0423 74.8213 94.9843 73.5364C96.9262 72.2514 99.2158 71.5681 101.557 71.5748C104.569 71.5356 107.476 72.6579 109.656 74.7008C111.835 76.7436 113.112 79.5443 113.214 82.5019Z" fill="url(#paint0_linear_208_2)"/>
<path d="M148.183 82.4546C148.3 84.7405 147.716 87.0083 146.508 88.9653C145.3 90.9224 143.523 92.4789 141.406 93.4341C139.289 94.3893 136.929 94.6994 134.631 94.3243C132.333 93.9493 130.202 92.9063 128.513 91.3299C126.824 89.7535 125.654 87.716 125.155 85.4804C124.656 83.2447 124.851 80.9135 125.713 78.7873C126.576 76.6612 128.067 74.8377 129.994 73.5522C131.922 72.2667 134.197 71.5781 136.527 71.5752C139.534 71.5234 142.441 72.6351 144.622 74.6703C146.803 76.7055 148.082 79.5013 148.183 82.4546Z" fill="url(#paint1_linear_208_2)"/>
<path d="M126.91 76.3466C125.889 77.3579 124.675 78.1607 123.337 78.7085C121.999 79.2563 120.564 79.5384 119.114 79.5384C117.665 79.5384 116.23 79.2563 114.892 78.7085C113.554 78.1607 112.34 77.3579 111.319 76.3466V88.6575C112.336 87.6403 113.55 86.8324 114.888 86.281C116.226 85.7295 117.663 85.4455 119.114 85.4455C120.566 85.4455 122.003 85.7295 123.341 86.281C124.679 86.8324 125.893 87.6403 126.91 88.6575V76.3466Z" fill="url(#paint2_linear_208_2)"/>
<path d="M113.213 116.858C113.291 119.149 112.67 121.411 111.429 123.352C110.189 125.294 108.386 126.827 106.252 127.755C104.119 128.683 101.751 128.963 99.4544 128.56C97.1575 128.156 95.0357 127.087 93.3615 125.49C91.6873 123.894 90.5372 121.842 90.0586 119.598C89.5801 117.354 89.795 115.021 90.6759 112.898C91.5568 110.775 93.0633 108.96 95.0021 107.684C96.941 106.409 99.2236 105.732 101.557 105.74C104.598 105.714 107.527 106.867 109.709 108.948C111.89 111.029 113.15 113.871 113.213 116.858Z" fill="url(#paint3_linear_208_2)"/>
<path d="M148.182 116.81C148.26 119.09 147.643 121.341 146.41 123.273C145.177 125.206 143.384 126.733 141.263 127.659C139.141 128.584 136.786 128.866 134.499 128.469C132.213 128.071 130.1 127.011 128.431 125.426C126.762 123.841 125.612 121.802 125.13 119.57C124.648 117.339 124.855 115.017 125.725 112.902C126.594 110.788 128.087 108.976 130.011 107.7C131.936 106.424 134.204 105.741 136.526 105.74C138.031 105.715 139.527 105.981 140.927 106.524C142.328 107.067 143.606 107.875 144.688 108.903C145.771 109.931 146.637 111.158 147.236 112.515C147.836 113.872 148.157 115.332 148.182 116.81Z" fill="url(#paint4_linear_208_2)"/>
<path d="M126.91 110.703C125.893 111.72 124.679 112.528 123.341 113.079C122.003 113.631 120.566 113.915 119.114 113.915C117.663 113.915 116.226 113.631 114.888 113.079C113.55 112.528 112.336 111.72 111.319 110.703V123.014C112.34 122.002 113.554 121.199 114.892 120.652C116.23 120.104 117.665 119.822 119.114 119.822C120.564 119.822 121.999 120.104 123.337 120.652C124.675 121.199 125.889 122.002 126.91 123.014V110.703Z" fill="url(#paint5_linear_208_2)"/>
<path d="M113.213 151.262C113.291 153.553 112.67 155.814 111.429 157.756C110.189 159.698 108.386 161.231 106.252 162.159C104.119 163.087 101.751 163.367 99.4544 162.963C97.1575 162.56 95.0357 161.491 93.3615 159.894C91.6873 158.297 90.5372 156.245 90.0586 154.002C89.5801 151.758 89.795 149.425 90.6759 147.302C91.5568 145.179 93.0633 143.364 95.0021 142.088C96.941 140.813 99.2236 140.135 101.557 140.144C104.598 140.118 107.527 141.27 109.709 143.352C111.89 145.433 113.15 148.275 113.213 151.262Z" fill="url(#paint6_linear_208_2)"/>
<path d="M148.182 151.214C148.26 153.494 147.643 155.744 146.41 157.677C145.177 159.61 143.384 161.137 141.263 162.062C139.141 162.988 136.786 163.27 134.499 162.872C132.213 162.474 130.1 161.415 128.431 159.829C126.762 158.244 125.612 156.205 125.13 153.974C124.648 151.743 124.855 149.421 125.725 147.306C126.594 145.191 128.087 143.379 130.011 142.103C131.936 140.827 134.204 140.145 136.526 140.144C138.031 140.118 139.527 140.385 140.927 140.927C142.328 141.47 143.606 142.279 144.688 143.307C145.771 144.335 146.637 145.562 147.236 146.919C147.836 148.276 148.157 149.735 148.182 151.214Z" fill="url(#paint7_linear_208_2)"/>
<path d="M126.91 145.106C125.893 146.124 124.679 146.931 123.341 147.483C122.003 148.034 120.566 148.318 119.114 148.318C117.663 148.318 116.226 148.034 114.888 147.483C113.55 146.931 112.336 146.124 111.319 145.106V157.465C112.34 156.454 113.554 155.651 114.892 155.103C116.23 154.555 117.665 154.273 119.114 154.273C120.564 154.273 121.999 154.555 123.337 155.103C124.675 155.651 125.889 156.454 126.91 157.465V145.106Z" fill="url(#paint8_linear_208_2)"/>
<path d="M107.968 48.4322C107.978 49.6726 107.611 50.8876 106.916 51.9229C106.221 52.9581 105.227 53.7667 104.063 54.2457C102.898 54.7247 101.615 54.8525 100.376 54.6128C99.1376 54.3732 97.9994 53.7769 97.1067 52.8998C96.214 52.0228 95.607 50.9046 95.3631 49.6876C95.1191 48.4706 95.2492 47.2099 95.7368 46.0657C96.2244 44.9216 97.0474 43.9459 98.1011 43.2626C99.1548 42.5794 100.392 42.2197 101.654 42.2291C102.483 42.2291 103.304 42.3895 104.07 42.7013C104.836 43.013 105.532 43.4699 106.119 44.046C106.705 44.622 107.17 45.3058 107.487 46.0584C107.805 46.811 107.968 47.6176 107.968 48.4322Z" fill="url(#paint9_linear_208_2)"/>
<path d="M79.1177 82.4544C79.1177 84.1552 78.6037 85.8176 77.6409 87.2311C76.6781 88.6446 75.3099 89.7454 73.7096 90.394C72.1093 91.0427 70.349 91.21 68.6519 90.8747C66.9547 90.5394 65.3971 89.7166 64.1764 88.5106C62.9557 87.3047 62.1269 85.7698 61.7951 84.1006C61.4633 82.4313 61.6434 80.7029 62.3125 79.1343C62.9816 77.5658 64.1097 76.2277 65.5538 75.2897C66.9978 74.3516 68.6928 73.8559 70.4239 73.8654C71.5697 73.8654 72.7042 74.0879 73.7621 74.5201C74.8201 74.9523 75.7807 75.5857 76.5886 76.3839C77.3965 77.1821 78.0359 78.1293 78.4699 79.1711C78.904 80.2129 79.1241 81.3287 79.1177 82.4544Z" fill="url(#paint10_linear_208_2)"/>
<path d="M176.353 82.4543C176.353 84.153 175.84 85.8136 174.879 87.226C173.919 88.6385 172.553 89.7394 170.956 90.3894C169.358 91.0395 167.601 91.2096 165.905 90.8782C164.209 90.5468 162.651 89.7288 161.429 88.5276C160.206 87.3264 159.373 85.796 159.036 84.1299C158.699 82.4638 158.872 80.7368 159.533 79.1674C160.195 77.598 161.316 76.2565 162.753 75.3128C164.191 74.369 165.881 73.8653 167.61 73.8653C169.929 73.8653 172.153 74.7702 173.792 76.3809C175.432 77.9917 176.353 80.1763 176.353 82.4543Z" fill="url(#paint11_linear_208_2)"/>
<path d="M176.353 151.214C176.362 152.915 175.858 154.58 174.903 155.999C173.948 157.417 172.586 158.526 170.989 159.183C169.393 159.84 167.634 160.017 165.935 159.691C164.236 159.365 162.673 158.551 161.446 157.352C160.218 156.152 159.381 154.622 159.039 152.955C158.698 151.287 158.868 149.558 159.529 147.986C160.189 146.414 161.309 145.069 162.748 144.123C164.187 143.178 165.879 142.673 167.61 142.673C169.916 142.685 172.126 143.587 173.761 145.185C175.396 146.783 176.327 148.948 176.353 151.214Z" fill="url(#paint12_linear_208_2)"/>
<path d="M79.1176 151.214C79.1272 152.916 78.6214 154.584 77.6645 156.003C76.7076 157.423 75.3427 158.531 73.7433 159.187C72.1438 159.843 70.382 160.017 68.6817 159.687C66.9813 159.358 65.4191 158.539 64.1936 157.335C62.968 156.13 62.1344 154.596 61.7986 152.925C61.4629 151.255 61.6401 149.524 62.3078 147.952C62.9755 146.381 64.1035 145.04 65.5486 144.1C66.9937 143.16 68.6906 142.663 70.4238 142.672C72.7256 142.685 74.9295 143.589 76.5571 145.188C78.1848 146.787 79.1048 148.952 79.1176 151.214Z" fill="url(#paint13_linear_208_2)"/>
<path d="M79.1176 116.81C79.1272 118.513 78.6214 120.18 77.6645 121.6C76.7076 123.02 75.3427 124.128 73.7433 124.784C72.1438 125.44 70.382 125.614 68.6817 125.284C66.9813 124.954 65.4191 124.135 64.1936 122.931C62.968 121.727 62.1344 120.192 61.7986 118.522C61.4629 116.851 61.6401 115.12 62.3078 113.549C62.9755 111.978 64.1035 110.637 65.5486 109.696C66.9937 108.756 68.6906 108.259 70.4238 108.269C72.7256 108.281 74.9295 109.185 76.5571 110.784C78.1848 112.383 79.1048 114.549 79.1176 116.81Z" fill="url(#paint14_linear_208_2)"/>
<path d="M176.353 116.81C176.362 118.511 175.858 120.176 174.903 121.595C173.948 123.014 172.586 124.122 170.989 124.779C169.393 125.437 167.634 125.614 165.935 125.288C164.236 124.962 162.673 124.148 161.446 122.948C160.218 121.749 159.381 120.219 159.039 118.551C158.698 116.884 158.868 115.154 159.529 113.582C160.189 112.01 161.309 110.666 162.748 109.72C164.187 108.774 165.879 108.269 167.61 108.269C169.916 108.281 172.126 109.184 173.761 110.782C175.396 112.379 176.327 114.545 176.353 116.81Z" fill="url(#paint15_linear_208_2)"/>
<path d="M107.968 185.331C107.978 186.571 107.611 187.786 106.916 188.822C106.221 189.857 105.227 190.665 104.063 191.144C102.898 191.623 101.615 191.751 100.376 191.512C99.1376 191.272 97.9994 190.676 97.1067 189.798C96.214 188.921 95.607 187.803 95.3631 186.586C95.1191 185.369 95.2492 184.109 95.7368 182.964C96.2244 181.82 97.0474 180.845 98.1011 180.161C99.1548 179.478 100.392 179.118 101.654 179.128C103.329 179.128 104.935 179.781 106.119 180.945C107.303 182.108 107.968 183.686 107.968 185.331Z" fill="url(#paint16_linear_208_2)"/>
<path d="M142.888 185.331C142.888 186.558 142.518 187.758 141.824 188.778C141.13 189.798 140.144 190.593 138.991 191.062C137.837 191.532 136.567 191.655 135.343 191.415C134.118 191.176 132.993 190.585 132.11 189.718C131.227 188.85 130.625 187.745 130.382 186.542C130.138 185.338 130.263 184.091 130.741 182.958C131.219 181.824 132.028 180.855 133.067 180.174C134.105 179.492 135.326 179.128 136.574 179.128C138.249 179.128 139.855 179.782 141.039 180.945C142.223 182.108 142.888 183.686 142.888 185.331Z" fill="url(#paint17_linear_208_2)"/>
<path d="M142.888 48.4327C142.888 49.6595 142.518 50.8589 141.824 51.879C141.13 52.8991 140.144 53.6941 138.991 54.1636C137.837 54.6331 136.567 54.756 135.343 54.5166C134.118 54.2773 132.993 53.6865 132.11 52.819C131.227 51.9514 130.625 50.8461 130.382 49.6429C130.138 48.4396 130.263 47.1923 130.741 46.0588C131.219 44.9254 132.028 43.9566 133.067 43.2749C134.105 42.5933 135.326 42.2295 136.574 42.2295C137.404 42.2295 138.225 42.39 138.991 42.7017C139.757 43.0134 140.453 43.4704 141.039 44.0464C141.625 44.6224 142.09 45.3062 142.408 46.0588C142.725 46.8114 142.888 47.6181 142.888 48.4327Z" fill="url(#paint18_linear_208_2)"/>
<path d="M203.697 116.81C203.706 118.039 203.344 119.243 202.656 120.269C201.969 121.296 200.986 122.098 199.833 122.575C198.68 123.052 197.409 123.182 196.181 122.948C194.953 122.714 193.824 122.127 192.936 121.261C192.048 120.395 191.442 119.29 191.194 118.086C190.947 116.881 191.069 115.631 191.545 114.495C192.022 113.359 192.831 112.387 193.87 111.704C194.909 111.02 196.132 110.655 197.383 110.655C199.049 110.655 200.648 111.302 201.83 112.455C203.013 113.608 203.684 115.173 203.697 116.81Z" fill="url(#paint19_linear_208_2)"/>
<path d="M46.869 116.81C46.8786 118.039 46.5165 119.243 45.8286 120.269C45.1407 121.296 44.158 122.098 43.0052 122.575C41.8523 123.052 40.5813 123.182 39.3533 122.948C38.1254 122.714 36.9958 122.127 36.1079 121.261C35.22 120.395 34.6138 119.29 34.3663 118.086C34.1187 116.881 34.2408 115.631 34.7173 114.495C35.1937 113.359 36.0029 112.387 37.0422 111.704C38.0816 111.02 39.3042 110.655 40.5551 110.655C42.2212 110.655 43.8199 111.302 45.0026 112.455C46.1853 113.608 46.8562 115.173 46.869 116.81Z" fill="url(#paint20_linear_208_2)"/>
<defs>
<linearGradient id="paint0_linear_208_2" x1="101.557" y1="191.534" x2="101.557" y2="96.0534" gradientUnits="userSpaceOnUse">
<stop stop-color="#FF7B43"/>
<stop offset="1" stop-color="#FFD74B"/>
</linearGradient>
<linearGradient id="paint1_linear_208_2" x1="136.527" y1="191.535" x2="136.527" y2="96.0538" gradientUnits="userSpaceOnUse">
<stop stop-color="#FF7B43"/>
<stop offset="1" stop-color="#FFD74B"/>
</linearGradient>
<linearGradient id="paint2_linear_208_2" x1="119.09" y1="191.534" x2="119.09" y2="96.0535" gradientUnits="userSpaceOnUse">
<stop stop-color="#FF7B43"/>
<stop offset="1" stop-color="#FFD74B"/>
</linearGradient>
<linearGradient id="paint3_linear_208_2" x1="101.557" y1="191.534" x2="101.557" y2="96.0534" gradientUnits="userSpaceOnUse">
<stop stop-color="#FF7B43"/>
<stop offset="1" stop-color="#FFD74B"/>
</linearGradient>
<linearGradient id="paint4_linear_208_2" x1="136.526" y1="191.535" x2="136.526" y2="96.0537" gradientUnits="userSpaceOnUse">
<stop stop-color="#FF7B43"/>
<stop offset="1" stop-color="#FFD74B"/>
</linearGradient>
<linearGradient id="paint5_linear_208_2" x1="119.09" y1="191.535" x2="119.09" y2="96.0537" gradientUnits="userSpaceOnUse">
<stop stop-color="#FF7B43"/>
<stop offset="1" stop-color="#FFD74B"/>
</linearGradient>
<linearGradient id="paint6_linear_208_2" x1="101.557" y1="191.534" x2="101.557" y2="96.0536" gradientUnits="userSpaceOnUse">
<stop stop-color="#FF7B43"/>
<stop offset="1" stop-color="#FFD74B"/>
</linearGradient>
<linearGradient id="paint7_linear_208_2" x1="136.526" y1="191.534" x2="136.526" y2="96.0536" gradientUnits="userSpaceOnUse">
<stop stop-color="#FF7B43"/>
<stop offset="1" stop-color="#FFD74B"/>
</linearGradient>
<linearGradient id="paint8_linear_208_2" x1="119.09" y1="191.535" x2="119.09" y2="96.0538" gradientUnits="userSpaceOnUse">
<stop stop-color="#FF7B43"/>
<stop offset="1" stop-color="#FFD74B"/>
</linearGradient>
<linearGradient id="paint9_linear_208_2" x1="101.654" y1="191.534" x2="101.654" y2="96.0534" gradientUnits="userSpaceOnUse">
<stop stop-color="#FF7B43"/>
<stop offset="1" stop-color="#FFD74B"/>
</linearGradient>
<linearGradient id="paint10_linear_208_2" x1="70.4239" y1="191.534" x2="70.4239" y2="96.0536" gradientUnits="userSpaceOnUse">
<stop stop-color="#FF7B43"/>
<stop offset="1" stop-color="#FFD74B"/>
</linearGradient>
<linearGradient id="paint11_linear_208_2" x1="167.61" y1="191.534" x2="167.61" y2="96.0535" gradientUnits="userSpaceOnUse">
<stop stop-color="#FF7B43"/>
<stop offset="1" stop-color="#FFD74B"/>
</linearGradient>
<linearGradient id="paint12_linear_208_2" x1="167.61" y1="191.534" x2="167.61" y2="96.0535" gradientUnits="userSpaceOnUse">
<stop stop-color="#FF7B43"/>
<stop offset="1" stop-color="#FFD74B"/>
</linearGradient>
<linearGradient id="paint13_linear_208_2" x1="70.4238" y1="191.534" x2="70.4238" y2="96.0533" gradientUnits="userSpaceOnUse">
<stop stop-color="#FF7B43"/>
<stop offset="1" stop-color="#FFD74B"/>
</linearGradient>
<linearGradient id="paint14_linear_208_2" x1="70.4238" y1="191.534" x2="70.4238" y2="96.0534" gradientUnits="userSpaceOnUse">
<stop stop-color="#FF7B43"/>
<stop offset="1" stop-color="#FFD74B"/>
</linearGradient>
<linearGradient id="paint15_linear_208_2" x1="167.61" y1="191.534" x2="167.61" y2="96.0536" gradientUnits="userSpaceOnUse">
<stop stop-color="#FF7B43"/>
<stop offset="1" stop-color="#FFD74B"/>
</linearGradient>
<linearGradient id="paint16_linear_208_2" x1="101.654" y1="191.534" x2="101.654" y2="96.0533" gradientUnits="userSpaceOnUse">
<stop stop-color="#FF7B43"/>
<stop offset="1" stop-color="#FFD74B"/>
</linearGradient>
<linearGradient id="paint17_linear_208_2" x1="136.574" y1="191.535" x2="136.574" y2="96.0537" gradientUnits="userSpaceOnUse">
<stop stop-color="#FF7B43"/>
<stop offset="1" stop-color="#FFD74B"/>
</linearGradient>
<linearGradient id="paint18_linear_208_2" x1="136.574" y1="191.535" x2="136.574" y2="96.0538" gradientUnits="userSpaceOnUse">
<stop stop-color="#FF7B43"/>
<stop offset="1" stop-color="#FFD74B"/>
</linearGradient>
<linearGradient id="paint19_linear_208_2" x1="197.383" y1="191.534" x2="197.383" y2="96.0535" gradientUnits="userSpaceOnUse">
<stop stop-color="#FF7B43"/>
<stop offset="1" stop-color="#FFD74B"/>
</linearGradient>
<linearGradient id="paint20_linear_208_2" x1="40.5551" y1="191.534" x2="40.5551" y2="96.0535" gradientUnits="userSpaceOnUse">
<stop stop-color="#FF7B43"/>
<stop offset="1" stop-color="#FFD74B"/>
</linearGradient>
</defs>
</svg>
