<svg width="275" height="271" viewBox="0 0 275 271" fill="none" xmlns="http://www.w3.org/2000/svg">
<g filter="url(#filter0_d_208_2)">
<path d="M19 131.476C19 35.5658 39.9331 15 137.556 15C235.179 15 256.161 35.5658 256.161 131.476C256.161 227.386 235.228 248 137.556 248C39.8845 248 19 227.434 19 131.476Z" fill="#FEFEFE"/>
<path d="M132.214 97.5019C132.33 99.7993 131.743 102.078 130.527 104.044C129.312 106.01 127.524 107.573 125.395 108.53C123.267 109.488 120.894 109.796 118.585 109.415C116.276 109.035 114.137 107.982 112.443 106.394C110.749 104.806 109.578 102.756 109.083 100.508C108.588 98.2596 108.79 95.9171 109.664 93.783C110.537 91.649 112.042 89.8213 113.984 88.5364C115.926 87.2514 118.216 86.5681 120.557 86.5748C123.569 86.5356 126.476 87.6579 128.656 89.7008C130.835 91.7436 132.112 94.5443 132.214 97.5019Z" fill="url(#paint0_linear_208_2)"/>
<path d="M167.183 97.4546C167.3 99.7405 166.716 102.008 165.508 103.965C164.3 105.922 162.523 107.479 160.406 108.434C158.289 109.389 155.929 109.699 153.631 109.324C151.333 108.949 149.202 107.906 147.513 106.33C145.824 104.753 144.654 102.716 144.155 100.48C143.656 98.2447 143.851 95.9135 144.713 93.7873C145.576 91.6612 147.067 89.8377 148.994 88.5522C150.922 87.2667 153.197 86.5781 155.527 86.5752C158.534 86.5234 161.441 87.6351 163.622 89.6703C165.803 91.7055 167.082 94.5013 167.183 97.4546Z" fill="url(#paint1_linear_208_2)"/>
<path d="M145.91 91.3466C144.889 92.3579 143.675 93.1607 142.337 93.7085C140.999 94.2563 139.564 94.5384 138.114 94.5384C136.665 94.5384 135.23 94.2563 133.892 93.7085C132.554 93.1607 131.34 92.3579 130.319 91.3466V103.657C131.336 102.64 132.55 101.832 133.888 101.281C135.226 100.729 136.663 100.445 138.114 100.445C139.566 100.445 141.003 100.729 142.341 101.281C143.679 101.832 144.893 102.64 145.91 103.657V91.3466Z" fill="url(#paint2_linear_208_2)"/>
<path d="M132.213 131.858C132.291 134.149 131.67 136.411 130.429 138.352C129.189 140.294 127.386 141.827 125.252 142.755C123.119 143.683 120.751 143.963 118.454 143.56C116.157 143.156 114.036 142.087 112.362 140.49C110.687 138.894 109.537 136.842 109.059 134.598C108.58 132.354 108.795 130.021 109.676 127.898C110.557 125.775 112.063 123.96 114.002 122.684C115.941 121.409 118.224 120.732 120.557 120.74C123.598 120.714 126.527 121.867 128.709 123.948C130.89 126.029 132.15 128.871 132.213 131.858Z" fill="url(#paint3_linear_208_2)"/>
<path d="M167.182 131.81C167.26 134.09 166.643 136.341 165.41 138.273C164.177 140.206 162.384 141.733 160.263 142.659C158.141 143.584 155.786 143.866 153.499 143.469C151.213 143.071 149.1 142.011 147.431 140.426C145.762 138.841 144.612 136.802 144.13 134.57C143.648 132.339 143.855 130.017 144.725 127.902C145.594 125.788 147.087 123.976 149.011 122.7C150.936 121.424 153.204 120.741 155.526 120.74C157.031 120.715 158.527 120.981 159.927 121.524C161.328 122.067 162.606 122.875 163.688 123.903C164.771 124.931 165.637 126.158 166.236 127.515C166.836 128.872 167.157 130.332 167.182 131.81Z" fill="url(#paint4_linear_208_2)"/>
<path d="M145.91 125.703C144.893 126.72 143.679 127.528 142.341 128.079C141.003 128.631 139.566 128.915 138.114 128.915C136.663 128.915 135.226 128.631 133.888 128.079C132.55 127.528 131.336 126.72 130.319 125.703V138.014C131.34 137.002 132.554 136.199 133.892 135.652C135.23 135.104 136.665 134.822 138.114 134.822C139.564 134.822 140.999 135.104 142.337 135.652C143.675 136.199 144.889 137.002 145.91 138.014V125.703Z" fill="url(#paint5_linear_208_2)"/>
<path d="M132.213 166.262C132.291 168.553 131.67 170.814 130.429 172.756C129.189 174.698 127.386 176.231 125.252 177.159C123.119 178.087 120.751 178.367 118.454 177.963C116.157 177.56 114.036 176.491 112.362 174.894C110.687 173.297 109.537 171.245 109.059 169.002C108.58 166.758 108.795 164.425 109.676 162.302C110.557 160.179 112.063 158.364 114.002 157.088C115.941 155.813 118.224 155.135 120.557 155.144C123.598 155.118 126.527 156.27 128.709 158.352C130.89 160.433 132.15 163.275 132.213 166.262Z" fill="url(#paint6_linear_208_2)"/>
<path d="M167.182 166.214C167.26 168.494 166.643 170.744 165.41 172.677C164.177 174.61 162.384 176.137 160.263 177.062C158.141 177.988 155.786 178.27 153.499 177.872C151.213 177.474 149.1 176.415 147.431 174.829C145.762 173.244 144.612 171.205 144.13 168.974C143.648 166.743 143.855 164.421 144.725 162.306C145.594 160.191 147.087 158.379 149.011 157.103C150.936 155.827 153.204 155.145 155.526 155.144C157.031 155.118 158.527 155.385 159.927 155.927C161.328 156.47 162.606 157.279 163.688 158.307C164.771 159.335 165.637 160.562 166.236 161.919C166.836 163.275 167.157 164.735 167.182 166.214Z" fill="url(#paint7_linear_208_2)"/>
<path d="M145.91 160.106C144.893 161.124 143.679 161.931 142.341 162.483C141.003 163.034 139.566 163.318 138.114 163.318C136.663 163.318 135.226 163.034 133.888 162.483C132.55 161.931 131.336 161.124 130.319 160.106V172.465C131.34 171.454 132.554 170.651 133.892 170.103C135.23 169.555 136.665 169.273 138.114 169.273C139.564 169.273 140.999 169.555 142.337 170.103C143.675 170.651 144.889 171.454 145.91 172.465V160.106Z" fill="url(#paint8_linear_208_2)"/>
<path d="M126.968 63.4322C126.978 64.6726 126.611 65.8876 125.916 66.9229C125.221 67.9581 124.227 68.7667 123.063 69.2457C121.898 69.7247 120.615 69.8525 119.376 69.6128C118.138 69.3732 116.999 68.7769 116.107 67.8998C115.214 67.0228 114.607 65.9046 114.363 64.6876C114.119 63.4706 114.249 62.2099 114.737 61.0657C115.224 59.9216 116.047 58.9459 117.101 58.2626C118.155 57.5794 119.392 57.2197 120.654 57.2291C121.483 57.2291 122.304 57.3895 123.07 57.7013C123.836 58.013 124.532 58.4699 125.119 59.046C125.705 59.622 126.17 60.3058 126.487 61.0584C126.805 61.811 126.968 62.6176 126.968 63.4322Z" fill="url(#paint9_linear_208_2)"/>
<path d="M98.1177 97.4544C98.1177 99.1552 97.6037 100.818 96.6409 102.231C95.6781 103.645 94.3099 104.745 92.7096 105.394C91.1093 106.043 89.349 106.21 87.6519 105.875C85.9547 105.539 84.3971 104.717 83.1764 103.511C81.9557 102.305 81.1269 100.77 80.7951 99.1006C80.4633 97.4313 80.6434 95.7029 81.3125 94.1343C81.9816 92.5658 83.1097 91.2277 84.5538 90.2897C85.9978 89.3516 87.6928 88.8559 89.4239 88.8654C90.5697 88.8654 91.7042 89.0879 92.7621 89.5201C93.8201 89.9523 94.7807 90.5857 95.5886 91.3839C96.3965 92.1821 97.0359 93.1293 97.4699 94.1711C97.904 95.2129 98.1241 96.3287 98.1177 97.4544Z" fill="url(#paint10_linear_208_2)"/>
<path d="M195.353 97.4543C195.353 99.153 194.84 100.814 193.879 102.226C192.919 103.638 191.553 104.739 189.956 105.389C188.358 106.04 186.601 106.21 184.905 105.878C183.209 105.547 181.651 104.729 180.429 103.528C179.206 102.326 178.373 100.796 178.036 99.1299C177.699 97.4638 177.872 95.7368 178.533 94.1674C179.195 92.598 180.316 91.2565 181.753 90.3128C183.191 89.369 184.881 88.8653 186.61 88.8653C188.929 88.8653 191.153 89.7702 192.792 91.3809C194.432 92.9917 195.353 95.1763 195.353 97.4543Z" fill="url(#paint11_linear_208_2)"/>
<path d="M195.353 166.214C195.362 167.915 194.858 169.58 193.903 170.999C192.948 172.417 191.586 173.526 189.989 174.183C188.393 174.84 186.634 175.017 184.935 174.691C183.236 174.365 181.673 173.551 180.446 172.352C179.218 171.152 178.381 169.622 178.039 167.955C177.698 166.287 177.868 164.558 178.529 162.986C179.189 161.414 180.309 160.069 181.748 159.123C183.187 158.178 184.879 157.673 186.61 157.673C188.916 157.685 191.126 158.587 192.761 160.185C194.396 161.783 195.327 163.948 195.353 166.214Z" fill="url(#paint12_linear_208_2)"/>
<path d="M98.1176 166.214C98.1272 167.916 97.6214 169.584 96.6645 171.003C95.7076 172.423 94.3427 173.531 92.7433 174.187C91.1438 174.843 89.382 175.017 87.6817 174.687C85.9813 174.358 84.4191 173.539 83.1936 172.335C81.968 171.13 81.1344 169.596 80.7986 167.925C80.4629 166.255 80.6401 164.524 81.3078 162.952C81.9755 161.381 83.1035 160.04 84.5486 159.1C85.9937 158.16 87.6906 157.663 89.4238 157.672C91.7256 157.685 93.9295 158.589 95.5571 160.188C97.1848 161.787 98.1048 163.952 98.1176 166.214Z" fill="url(#paint13_linear_208_2)"/>
<path d="M98.1176 131.81C98.1272 133.513 97.6214 135.18 96.6645 136.6C95.7076 138.02 94.3427 139.128 92.7433 139.784C91.1438 140.44 89.382 140.614 87.6817 140.284C85.9813 139.954 84.4191 139.135 83.1936 137.931C81.968 136.727 81.1344 135.192 80.7986 133.522C80.4629 131.851 80.6401 130.12 81.3078 128.549C81.9755 126.978 83.1035 125.637 84.5486 124.696C85.9937 123.756 87.6906 123.259 89.4238 123.269C91.7256 123.281 93.9295 124.185 95.5571 125.784C97.1848 127.383 98.1048 129.549 98.1176 131.81Z" fill="url(#paint14_linear_208_2)"/>
<path d="M195.353 131.81C195.362 133.511 194.858 135.176 193.903 136.595C192.948 138.014 191.586 139.122 189.989 139.779C188.393 140.437 186.634 140.614 184.935 140.288C183.236 139.962 181.673 139.148 180.446 137.948C179.218 136.749 178.381 135.219 178.039 133.551C177.698 131.884 177.868 130.154 178.529 128.582C179.189 127.01 180.309 125.666 181.748 124.72C183.187 123.774 184.879 123.269 186.61 123.269C188.916 123.281 191.126 124.184 192.761 125.782C194.396 127.379 195.327 129.545 195.353 131.81Z" fill="url(#paint15_linear_208_2)"/>
<path d="M126.968 200.331C126.978 201.571 126.611 202.786 125.916 203.822C125.221 204.857 124.227 205.665 123.063 206.144C121.898 206.623 120.615 206.751 119.376 206.512C118.138 206.272 116.999 205.676 116.107 204.798C115.214 203.921 114.607 202.803 114.363 201.586C114.119 200.369 114.249 199.109 114.737 197.964C115.224 196.82 116.047 195.845 117.101 195.161C118.155 194.478 119.392 194.118 120.654 194.128C122.329 194.128 123.935 194.781 125.119 195.945C126.303 197.108 126.968 198.686 126.968 200.331Z" fill="url(#paint16_linear_208_2)"/>
<path d="M161.888 200.331C161.888 201.558 161.518 202.758 160.824 203.778C160.13 204.798 159.144 205.593 157.991 206.062C156.837 206.532 155.567 206.655 154.343 206.415C153.118 206.176 151.993 205.585 151.11 204.718C150.227 203.85 149.625 202.745 149.382 201.542C149.138 200.338 149.263 199.091 149.741 197.958C150.219 196.824 151.028 195.855 152.067 195.174C153.105 194.492 154.326 194.128 155.574 194.128C157.249 194.128 158.855 194.782 160.039 195.945C161.223 197.108 161.888 198.686 161.888 200.331Z" fill="url(#paint17_linear_208_2)"/>
<path d="M161.888 63.4327C161.888 64.6595 161.518 65.8589 160.824 66.879C160.13 67.8991 159.144 68.6941 157.991 69.1636C156.837 69.6331 155.567 69.756 154.343 69.5166C153.118 69.2773 151.993 68.6865 151.11 67.819C150.227 66.9514 149.625 65.8461 149.382 64.6429C149.138 63.4396 149.263 62.1923 149.741 61.0588C150.219 59.9254 151.028 58.9566 152.067 58.2749C153.105 57.5933 154.326 57.2295 155.574 57.2295C156.404 57.2295 157.225 57.39 157.991 57.7017C158.757 58.0134 159.453 58.4704 160.039 59.0464C160.625 59.6224 161.09 60.3062 161.408 61.0588C161.725 61.8114 161.888 62.6181 161.888 63.4327Z" fill="url(#paint18_linear_208_2)"/>
<path d="M222.697 131.81C222.706 133.039 222.344 134.243 221.656 135.269C220.969 136.296 219.986 137.098 218.833 137.575C217.68 138.052 216.409 138.182 215.181 137.948C213.953 137.714 212.824 137.127 211.936 136.261C211.048 135.395 210.442 134.29 210.194 133.086C209.947 131.881 210.069 130.631 210.545 129.495C211.022 128.359 211.831 127.387 212.87 126.704C213.909 126.02 215.132 125.655 216.383 125.655C218.049 125.655 219.648 126.302 220.83 127.455C222.013 128.608 222.684 130.173 222.697 131.81Z" fill="url(#paint19_linear_208_2)"/>
<path d="M65.869 131.81C65.8786 133.039 65.5165 134.243 64.8286 135.269C64.1407 136.296 63.158 137.098 62.0052 137.575C60.8523 138.052 59.5813 138.182 58.3533 137.948C57.1254 137.714 55.9958 137.127 55.1079 136.261C54.22 135.395 53.6138 134.29 53.3663 133.086C53.1187 131.881 53.2408 130.631 53.7173 129.495C54.1937 128.359 55.0029 127.387 56.0422 126.704C57.0816 126.02 58.3042 125.655 59.5551 125.655C61.2212 125.655 62.8199 126.302 64.0026 127.455C65.1853 128.608 65.8562 130.173 65.869 131.81Z" fill="url(#paint20_linear_208_2)"/>
</g>
<defs>
<filter id="filter0_d_208_2" x="0.799999" y="0.799999" width="273.561" height="269.4" filterUnits="userSpaceOnUse" color-interpolation-filters="sRGB">
<feFlood flood-opacity="0" result="BackgroundImageFix"/>
<feColorMatrix in="SourceAlpha" type="matrix" values="0 0 0 0 0 0 0 0 0 0 0 0 0 0 0 0 0 0 127 0" result="hardAlpha"/>
<feOffset dy="4"/>
<feGaussianBlur stdDeviation="9.1"/>
<feComposite in2="hardAlpha" operator="out"/>
<feColorMatrix type="matrix" values="0 0 0 0 0 0 0 0 0 0 0 0 0 0 0 0 0 0 0.28 0"/>
<feBlend mode="normal" in2="BackgroundImageFix" result="effect1_dropShadow_208_2"/>
<feBlend mode="normal" in="SourceGraphic" in2="effect1_dropShadow_208_2" result="shape"/>
</filter>
<linearGradient id="paint0_linear_208_2" x1="120.557" y1="206.534" x2="120.557" y2="111.053" gradientUnits="userSpaceOnUse">
<stop stop-color="#FF7B43"/>
<stop offset="1" stop-color="#FFD74B"/>
</linearGradient>
<linearGradient id="paint1_linear_208_2" x1="155.527" y1="206.535" x2="155.527" y2="111.054" gradientUnits="userSpaceOnUse">
<stop stop-color="#FF7B43"/>
<stop offset="1" stop-color="#FFD74B"/>
</linearGradient>
<linearGradient id="paint2_linear_208_2" x1="138.09" y1="206.534" x2="138.09" y2="111.054" gradientUnits="userSpaceOnUse">
<stop stop-color="#FF7B43"/>
<stop offset="1" stop-color="#FFD74B"/>
</linearGradient>
<linearGradient id="paint3_linear_208_2" x1="120.557" y1="206.534" x2="120.557" y2="111.053" gradientUnits="userSpaceOnUse">
<stop stop-color="#FF7B43"/>
<stop offset="1" stop-color="#FFD74B"/>
</linearGradient>
<linearGradient id="paint4_linear_208_2" x1="155.526" y1="206.535" x2="155.526" y2="111.054" gradientUnits="userSpaceOnUse">
<stop stop-color="#FF7B43"/>
<stop offset="1" stop-color="#FFD74B"/>
</linearGradient>
<linearGradient id="paint5_linear_208_2" x1="138.09" y1="206.535" x2="138.09" y2="111.054" gradientUnits="userSpaceOnUse">
<stop stop-color="#FF7B43"/>
<stop offset="1" stop-color="#FFD74B"/>
</linearGradient>
<linearGradient id="paint6_linear_208_2" x1="120.557" y1="206.534" x2="120.557" y2="111.054" gradientUnits="userSpaceOnUse">
<stop stop-color="#FF7B43"/>
<stop offset="1" stop-color="#FFD74B"/>
</linearGradient>
<linearGradient id="paint7_linear_208_2" x1="155.526" y1="206.534" x2="155.526" y2="111.054" gradientUnits="userSpaceOnUse">
<stop stop-color="#FF7B43"/>
<stop offset="1" stop-color="#FFD74B"/>
</linearGradient>
<linearGradient id="paint8_linear_208_2" x1="138.09" y1="206.535" x2="138.09" y2="111.054" gradientUnits="userSpaceOnUse">
<stop stop-color="#FF7B43"/>
<stop offset="1" stop-color="#FFD74B"/>
</linearGradient>
<linearGradient id="paint9_linear_208_2" x1="120.654" y1="206.534" x2="120.654" y2="111.053" gradientUnits="userSpaceOnUse">
<stop stop-color="#FF7B43"/>
<stop offset="1" stop-color="#FFD74B"/>
</linearGradient>
<linearGradient id="paint10_linear_208_2" x1="89.4239" y1="206.534" x2="89.4239" y2="111.054" gradientUnits="userSpaceOnUse">
<stop stop-color="#FF7B43"/>
<stop offset="1" stop-color="#FFD74B"/>
</linearGradient>
<linearGradient id="paint11_linear_208_2" x1="186.61" y1="206.534" x2="186.61" y2="111.053" gradientUnits="userSpaceOnUse">
<stop stop-color="#FF7B43"/>
<stop offset="1" stop-color="#FFD74B"/>
</linearGradient>
<linearGradient id="paint12_linear_208_2" x1="186.61" y1="206.534" x2="186.61" y2="111.053" gradientUnits="userSpaceOnUse">
<stop stop-color="#FF7B43"/>
<stop offset="1" stop-color="#FFD74B"/>
</linearGradient>
<linearGradient id="paint13_linear_208_2" x1="89.4238" y1="206.534" x2="89.4238" y2="111.053" gradientUnits="userSpaceOnUse">
<stop stop-color="#FF7B43"/>
<stop offset="1" stop-color="#FFD74B"/>
</linearGradient>
<linearGradient id="paint14_linear_208_2" x1="89.4238" y1="206.534" x2="89.4238" y2="111.053" gradientUnits="userSpaceOnUse">
<stop stop-color="#FF7B43"/>
<stop offset="1" stop-color="#FFD74B"/>
</linearGradient>
<linearGradient id="paint15_linear_208_2" x1="186.61" y1="206.534" x2="186.61" y2="111.054" gradientUnits="userSpaceOnUse">
<stop stop-color="#FF7B43"/>
<stop offset="1" stop-color="#FFD74B"/>
</linearGradient>
<linearGradient id="paint16_linear_208_2" x1="120.654" y1="206.534" x2="120.654" y2="111.053" gradientUnits="userSpaceOnUse">
<stop stop-color="#FF7B43"/>
<stop offset="1" stop-color="#FFD74B"/>
</linearGradient>
<linearGradient id="paint17_linear_208_2" x1="155.574" y1="206.535" x2="155.574" y2="111.054" gradientUnits="userSpaceOnUse">
<stop stop-color="#FF7B43"/>
<stop offset="1" stop-color="#FFD74B"/>
</linearGradient>
<linearGradient id="paint18_linear_208_2" x1="155.574" y1="206.535" x2="155.574" y2="111.054" gradientUnits="userSpaceOnUse">
<stop stop-color="#FF7B43"/>
<stop offset="1" stop-color="#FFD74B"/>
</linearGradient>
<linearGradient id="paint19_linear_208_2" x1="216.383" y1="206.534" x2="216.383" y2="111.053" gradientUnits="userSpaceOnUse">
<stop stop-color="#FF7B43"/>
<stop offset="1" stop-color="#FFD74B"/>
</linearGradient>
<linearGradient id="paint20_linear_208_2" x1="59.5551" y1="206.534" x2="59.5551" y2="111.053" gradientUnits="userSpaceOnUse">
<stop stop-color="#FF7B43"/>
<stop offset="1" stop-color="#FFD74B"/>
</linearGradient>
</defs>
</svg>
